HIERARCHY
ROOT Bone-00
{
	OFFSET 0.000000 0.000000 0.000000
	CHANNELS 6 Xposition Yposition Zposition Xrotation Yrotation Zrotation
	JOINT Bone-20
	{
		OFFSET 0.000000 0.000000 2.000000
		CHANNELS 3 Xrotation Yrotation Zrotation
		JOINT Bone-60
		{
			OFFSET 0.000000 0.000000 -0.300000
			CHANNELS 3 Xrotation Yrotation Zrotation
			JOINT Bone-61
			{
				OFFSET 0.300000 0.000000 0.000000
				CHANNELS 3 Xrotation Yrotation Zrotation
				JOINT Bone-62
				{
					OFFSET 0.000000 0.000000 -0.700000
					CHANNELS 3 Xrotation Yrotation Zrotation
					JOINT Bone-63
					{
						OFFSET 0.000000 0.000000 -0.800000
						CHANNELS 3 Xrotation Yrotation Zrotation
						End Site
						{
							OFFSET 0.000000 -0.300000 0.000000
						}
					}
				}
			}
		}
		JOINT Bone-70
		{
			OFFSET 0.000000 0.000000 -0.300000
			CHANNELS 3 Xrotation Yrotation Zrotation
			JOINT Bone-71
			{
				OFFSET -0.300000 0.000000 0.000000
				CHANNELS 3 Xrotation Yrotation Zrotation
				JOINT Bone-72
				{
					OFFSET 0.000000 0.000000 -0.700000
					CHANNELS 3 Xrotation Yrotation Zrotation
					JOINT Bone-73
					{
						OFFSET 0.000000 0.000000 -0.800000
						CHANNELS 3 Xrotation Yrotation Zrotation
						End Site
						{
							OFFSET 0.000000 -0.300000 0.000000
						}
					}
				}
			}
		}
	}
	JOINT Bone-10
	{
		OFFSET 0.000000 0.000000 2.000000
		CHANNELS 3 Xrotation Yrotation Zrotation
		JOINT Bone-30
		{
			OFFSET 0.000000 0.000000 1.000000
			CHANNELS 3 Xrotation Yrotation Zrotation
			End Site
			{
				OFFSET 0.000000 0.000000 1.000000
			}
		}
		JOINT Bone-40
		{
			OFFSET 0.000000 0.000000 1.000000
			CHANNELS 3 Xrotation Yrotation Zrotation
			JOINT Bone-41
			{
				OFFSET 0.500000 0.000000 -0.200000
				CHANNELS 3 Xrotation Yrotation Zrotation
				JOINT Bone-42
				{
					OFFSET 0.500000 0.000000 0.000000
					CHANNELS 3 Xrotation Yrotation Zrotation
					JOINT Bone-43
					{
						OFFSET 0.600000 0.000000 0.000000
						CHANNELS 3 Xrotation Yrotation Zrotation
						End Site
						{
							OFFSET 0.000000 -0.300000 0.000000
						}
					}
				}
			}
		}
		JOINT Bone-50
		{
			OFFSET 0.000000 0.000000 1.000000
			CHANNELS 3 Xrotation Yrotation Zrotation
			JOINT Bone-51
			{
				OFFSET -0.500000 0.000000 -0.204061
				CHANNELS 3 Xrotation Yrotation Zrotation
				JOINT Bone-52
				{
					OFFSET -0.500000 0.000000 0.004061
					CHANNELS 3 Xrotation Yrotation Zrotation
					JOINT Bone-53
					{
						OFFSET -0.600000 0.000000 0.000000
						CHANNELS 3 Xrotation Yrotation Zrotation
						End Site
						{
							OFFSET 0.000000 -0.300000 0.000000
						}
					}
				}
			}
		}
	}
}
MOTION
Frames: 16
Frame Time: 0.050000
0.000000 0.000000 -0.100000 -0.000000 0.000000 -0.000000 -0.000000 0.000000 -0.000000 -0.000000 0.000000 0.000000 -33.398484 0.000000 0.000000 33.398484 -0.000000 0.000000 -0.000000 0.000000 -0.000000 -0.000000 0.000000 0.000000 33.398488 -0.000001 0.000000 0.000002 -0.000000 -43.602818 -11.421187 0.000001 -0.000002 -0.000000 0.000000 -11.421185 -0.000000 0.000000 -0.000000 -0.000000 -0.000003 0.000000 20.151737 34.567441 -59.459392 -0.000006 0.000000 -53.130098 0.000001 0.000002 -0.000000 -0.000000 0.000002 0.000000 -20.348575 -33.964509 -59.698681 0.000007 -0.000001 53.130095 -0.000001 0.000001 0.000000 
0.000000 -0.031200 -0.120800 -0.000000 0.000000 -0.000000 -0.000000 0.000000 -0.000000 -0.000000 0.000000 0.000000 -35.572482 0.000000 0.000000 38.784143 0.000000 0.000000 -2.383161 0.000000 -0.000000 -0.000000 0.000000 0.000000 34.488685 -0.000001 0.000000 0.000002 -0.000000 -43.602818 -11.421189 -0.000004 0.000001 -0.000000 0.000000 -10.240059 -0.000000 0.000000 -0.000000 -0.000000 -0.000002 0.000000 20.151739 34.567441 -59.459399 -0.000005 -0.000002 -53.130098 -0.000002 0.000003 -0.000001 -0.000000 0.000002 0.000001 -20.348576 -33.964506 -59.698688 0.000007 -0.000001 53.130102 -0.000002 0.000002 0.000002 
0.000000 -0.105600 -0.170400 -0.000000 0.000000 -0.000000 -0.000000 0.000000 -0.000000 -0.000000 0.000000 0.000000 -40.649263 0.000000 0.000000 50.908890 0.000000 0.000000 -8.053958 0.000000 -0.000001 -0.000000 0.000000 0.000000 37.062307 -0.000001 0.000000 0.000002 0.000000 -43.602818 -11.421188 -0.000001 -0.000000 -0.000000 0.000000 -7.415166 -0.000000 0.000000 -0.000000 -0.000002 -0.000001 -0.000002 20.151741 34.567444 -59.459392 -0.000003 -0.000003 -53.130098 -0.000000 -0.000001 0.000002 -0.000002 0.000002 0.000000 -20.348571 -33.964506 -59.698688 0.000006 0.000002 53.130102 0.000001 -0.000001 -0.000001 
0.000000 -0.194400 -0.229600 -0.000000 0.000000 -0.000000 -0.000000 0.000000 -0.000000 -0.000000 0.000000 0.000000 -46.496718 0.000001 0.000000 63.928323 0.000000 0.000000 -14.768746 0.000000 -0.000001 -0.000000 0.000000 0.000000 40.083945 -0.000001 0.000000 -0.000000 -0.000000 -43.602818 -11.421186 -0.000003 -0.000003 -0.000000 0.000000 -4.031960 -0.000000 0.000000 -0.000000 -0.000002 -0.000001 -0.000001 20.151739 34.567441 -59.459399 -0.000007 -0.000001 -53.130098 -0.000001 0.000000 0.000001 -0.000000 0.000000 0.000000 -20.348576 -33.964512 -59.698681 0.000007 -0.000001 53.130102 0.000001 0.000001 0.000000 
0.000000 -0.268800 -0.279200 -0.000000 0.000000 -0.000000 -0.000000 0.000000 -0.000000 -0.000000 0.000000 0.000000 -51.207485 0.000001 0.000000 73.592980 0.000000 0.000000 -20.319135 0.000000 -0.000002 -0.000000 0.000000 0.000000 42.571780 -0.000001 0.000000 -0.000000 0.000000 -43.602818 -11.421187 -0.000003 0.000002 -0.000000 0.000000 -1.191710 -0.000000 0.000000 -0.000000 -0.000000 -0.000003 -0.000001 20.151739 34.567441 -59.459392 -0.000003 0.000001 -53.130098 -0.000001 0.000002 -0.000001 0.000002 0.000001 0.000000 -20.348573 -33.964509 -59.698681 0.000010 0.000003 53.130109 -0.000000 -0.000004 0.000000 
0.000000 -0.300000 -0.300000 -0.000000 0.000000 -0.000000 -0.000000 0.000000 -0.000000 -0.000000 0.000000 0.000000 -53.130102 0.000001 0.000000 77.319613 0.000000 0.000000 -22.619860 0.000000 -0.000002 -0.000000 0.000000 0.000000 43.602825 -0.000001 0.000001 -0.000000 0.000000 -43.602821 -11.421187 -0.000001 0.000003 -0.000000 0.000000 -0.000000 -0.000000 0.000000 -0.000000 -0.000000 -0.000003 -0.000001 20.151737 34.567437 -59.459392 -0.000002 0.000000 -53.130095 -0.000002 -0.000001 0.000001 -0.000000 0.000000 0.000000 -20.348570 -33.964506 -59.698681 0.000005 -0.000002 53.130102 0.000000 -0.000002 0.000000 
0.000000 -0.283200 -0.279200 -0.000000 0.000000 -0.000000 -0.000000 0.000000 -0.000000 -0.000000 0.000000 0.000000 -51.207485 0.000001 0.000000 74.990833 0.000000 0.000000 -21.648621 0.000000 -0.000002 -0.000000 0.000000 0.000000 43.523772 -0.000001 0.000001 -0.000000 0.000000 -43.602818 -11.421184 -0.000001 0.000000 -0.000000 0.000000 -0.641706 -0.000000 0.000000 -0.000000 -0.000000 -0.000003 -0.000001 20.151742 34.567444 -59.459392 -0.000002 -0.000001 -53.130098 0.000001 0.000002 0.000001 -0.000000 0.000000 0.000000 -20.348576 -33.964512 -59.698681 0.000003 -0.000001 53.130098 0.000000 -0.000000 0.000001 
0.000000 -0.237600 -0.229600 -0.000000 0.000000 -0.000000 -0.000000 0.000000 -0.000000 -0.000000 0.000000 0.000000 -46.496718 0.000001 0.000000 68.556678 0.000000 0.000000 -18.805695 0.000000 -0.000002 -0.000000 0.000000 0.000000 42.969205 -0.000001 0.000000 -0.000000 0.000000 -43.602818 -11.421184 0.000001 0.000003 -0.000000 0.000000 -2.383161 -0.000000 0.000000 -0.000000 -0.000000 -0.000003 0.000000 20.151742 34.567444 -59.459399 -0.000002 0.000001 -53.130098 -0.000000 0.000003 -0.000002 -0.000000 0.000000 -0.000001 -20.348575 -33.964509 -59.698688 0.000007 0.000000 53.130102 0.000002 -0.000003 0.000000 
0.000000 -0.170400 -0.170400 -0.000000 0.000000 -0.000000 -0.000000 0.000000 -0.000000 -0.000000 0.000000 0.000000 -40.649263 0.000000 0.000000 58.706801 0.000000 0.000000 -14.182333 0.000000 -0.000001 -0.000000 0.000000 0.000000 41.453282 -0.000001 0.000000 -0.000000 0.000000 -43.602821 -11.421187 -0.000004 0.000000 -0.000000 0.000000 -4.947280 -0.000000 0.000000 -0.000000 -0.000000 -0.000003 -0.000001 20.151737 34.567437 -59.459392 -0.000008 0.000002 -53.130095 -0.000002 0.000003 -0.000000 -0.000002 0.000000 0.000000 -20.348575 -33.964509 -59.698688 0.000004 -0.000001 53.130102 0.000001 -0.000001 -0.000000 
0.000000 -0.088800 -0.120800 -0.000000 0.000000 -0.000000 -0.000000 0.000000 -0.000000 -0.000000 0.000000 0.000000 -35.572482 0.000000 0.000000 46.419301 0.000000 0.000000 -7.871494 0.000000 -0.000001 -0.000000 0.000000 0.000000 38.457551 -0.000001 0.000000 -0.000000 0.000000 -43.602818 -11.421186 -0.000001 0.000001 -0.000000 0.000000 -8.053959 -0.000000 0.000000 -0.000000 -0.000002 -0.000003 -0.000001 20.151735 34.567447 -59.459399 -0.000007 0.000004 -53.130098 0.000000 0.000000 0.000001 -0.000000 0.000002 0.000000 -20.348575 -33.964512 -59.698681 0.000010 -0.000003 53.130098 -0.000001 0.000000 0.000001 
0.000000 0.000000 -0.100000 -0.000000 0.000000 -0.000000 -0.000000 0.000000 -0.000000 -0.000000 0.000000 0.000000 -33.398484 0.000000 0.000000 33.398484 -0.000000 0.000000 -0.000000 0.000000 -0.000000 -0.000000 0.000000 0.000000 33.398488 -0.000001 0.000000 0.000002 -0.000000 -43.602818 -11.421187 0.000001 -0.000002 -0.000000 0.000000 -11.421185 -0.000000 0.000000 -0.000000 -0.000000 -0.000003 0.000000 20.151737 34.567441 -59.459392 -0.000006 0.000000 -53.130098 0.000001 0.000002 -0.000000 -0.000000 0.000002 0.000000 -20.348575 -33.964509 -59.698681 0.000007 -0.000001 53.130095 -0.000001 0.000001 0.000000 
0.000000 0.088800 -0.120800 -0.000000 0.000000 -0.000000 -0.000000 0.000000 -0.000000 -0.000000 0.000000 0.000000 -33.398484 0.000000 0.000000 21.737050 -0.000000 0.000000 9.056747 0.000000 0.000001 -0.000000 0.000000 0.000000 25.949065 -0.000001 0.000000 4.928410 0.410188 -43.620474 -11.421187 0.000001 -0.000003 -0.000000 0.000000 -14.768746 -0.000000 0.000000 -0.000000 -0.000000 -0.000003 0.000000 20.151741 34.567437 -59.459385 -0.000005 0.000001 -53.130098 0.000000 0.000003 -0.000001 -0.000000 0.000000 0.000000 -20.348571 -33.964509 -59.698681 0.000005 0.000001 53.130102 0.000002 0.000000 0.000000 
0.000000 0.170400 -0.170400 -0.000000 0.000000 -0.000000 -0.000000 0.000000 -0.000000 -0.000000 0.000000 0.000000 -33.398484 0.000000 0.000000 12.328106 -0.000000 0.000000 18.135862 0.000000 0.000002 -0.000000 0.000000 0.000000 17.195995 -0.000001 0.000000 16.576661 1.361941 -43.801235 -11.421190 -0.000001 -0.000001 -0.000000 0.000000 -17.822836 -0.000000 0.000000 -0.000000 0.000001 -0.000001 -0.000002 20.151742 34.567441 -59.459392 -0.000003 0.000000 -53.130095 0.000002 0.000003 -0.000001 -0.000002 0.000000 0.000000 -20.348570 -33.964506 -59.698681 0.000004 0.000001 53.130102 0.000003 -0.000001 -0.000001 
0.000000 0.237600 -0.229600 -0.000000 0.000000 -0.000000 -0.000000 0.000000 -0.000000 -0.000000 0.000000 0.000000 -33.398484 0.000000 0.000000 5.496179 -0.000000 0.000000 25.949065 0.000001 0.000002 -0.000000 0.000000 0.000000 8.783389 -0.000000 0.000000 30.033544 2.388361 -44.243616 -11.421186 -0.000000 -0.000003 -0.000000 0.000000 -20.319135 -0.000000 0.000000 -0.000000 -0.000002 -0.000000 -0.000001 20.151744 34.567444 -59.459392 -0.000003 0.000001 -53.130098 -0.000002 0.000006 -0.000006 0.000001 -0.000002 -0.000001 -20.348571 -33.964509 -59.698681 0.000006 0.000001 53.130102 0.000001 -0.000001 -0.000002 
0.000000 0.283200 -0.279200 -0.000000 0.000000 -0.000000 -0.000000 0.000000 -0.000000 -0.000000 0.000000 0.000000 -33.398484 0.000000 0.000000 1.375037 -0.000000 0.000000 31.369488 0.000001 0.000003 -0.000000 0.000000 0.000000 2.474788 -0.000000 0.000000 40.716755 3.111537 -44.757652 -11.421188 -0.000001 -0.000003 -0.000000 0.000000 -22.002169 -0.000000 0.000000 -0.000000 -0.000000 -0.000003 -0.000001 20.151739 34.567441 -59.459392 -0.000004 0.000002 -53.130095 -0.000003 -0.000000 -0.000001 0.000001 0.000002 0.000000 -20.348576 -33.964509 -59.698681 0.000006 -0.000003 53.130102 -0.000001 -0.000000 0.000000 
0.000000 0.300000 -0.300000 -0.000000 0.000000 -0.000000 -0.000000 0.000000 -0.000000 -0.000000 0.000000 0.000000 -33.398484 0.000000 0.000000 0.000000 -0.000000 0.000000 33.398484 0.000001 0.000003 -0.000000 0.000000 0.000000 -0.000000 0.000000 -0.000000 45.000001 3.372287 -44.999998 -11.421190 -0.000000 0.000001 -0.000000 0.000000 -22.619865 -0.000000 0.000000 -0.000000 -0.000002 -0.000003 -0.000001 20.151739 34.567444 -59.459392 -0.000005 0.000002 -53.130102 -0.000001 0.000000 -0.000000 -0.000000 -0.000000 -0.000002 -20.348578 -33.964509 -59.698681 0.000007 0.000000 53.130102 0.000000 0.000001 -0.000002 
